<?xml version="1.0" encoding="utf-8"?>
<!-- Generator: Adobe Illustrator 25.2.1, SVG Export Plug-In . SVG Version: 6.00 Build 0)  -->
<svg version="1.1" id="Ebene_1" xmlns="http://www.w3.org/2000/svg" xmlns:xlink="http://www.w3.org/1999/xlink" x="0px" y="0px"
	 viewBox="0 0 54 54" style="enable-background:new 0 0 54 54;" xml:space="preserve">
<style type="text/css">
	.st0{fill:#4AAD33;}
	.st1{fill:url(#SVGID_1_);}
	.st2{fill:url(#SVGID_2_);}
	.st3{fill:url(#SVGID_3_);}
</style>
<path class="st0" d="M50.6,24.1L33.4,6.7l-6.2-6.2l-6.2,6.2L3.9,24.1l6.2,6.2l17.2-17.4l17.2,17.4L50.6,24.1z"/>
<g>
	<linearGradient id="SVGID_1_" gradientUnits="userSpaceOnUse" x1="15.5131" y1="18.5281" x2="41.8582" y2="56.7448">
		<stop  offset="0" style="stop-color:#2CAB67"/>
		<stop  offset="0.2102" style="stop-color:#5EB544"/>
		<stop  offset="0.3946" style="stop-color:#84BD29"/>
		<stop  offset="0.4916" style="stop-color:#92C01F"/>
		<stop  offset="0.679" style="stop-color:#94C11E"/>
		<stop  offset="0.7782" style="stop-color:#9CC41B"/>
		<stop  offset="0.8568" style="stop-color:#AAC916"/>
		<stop  offset="0.9246" style="stop-color:#BDCF0E"/>
		<stop  offset="0.9848" style="stop-color:#D5D804"/>
		<stop  offset="1" style="stop-color:#DDDB01"/>
	</linearGradient>
	<path class="st1" d="M41.4,35.9c-0.4-7.4-6.4-13.3-13.8-13.6c-8.2-0.3-14.9,6.2-14.9,14.4c0,0.3,0,0.6,0,0.9l0.1,0.8h0.8l1.4,0l0,0
		c0-0.7,0-1.4,0.2-2c1.2-5.7,6.5-9.9,12.6-9.5c6.2,0.4,11.1,5.4,11.4,11.6c0.3,6.7-4.9,12.3-11.5,12.7C35.5,50.7,41.8,44,41.4,35.9z
		"/>
	<g>
		<linearGradient id="SVGID_2_" gradientUnits="userSpaceOnUse" x1="27.2979" y1="46.8711" x2="27.2979" y2="19.6103">
			<stop  offset="0" style="stop-color:#2CAB67"/>
			<stop  offset="0.2102" style="stop-color:#5EB544"/>
			<stop  offset="0.3946" style="stop-color:#84BD29"/>
			<stop  offset="0.4916" style="stop-color:#92C01F"/>
			<stop  offset="0.679" style="stop-color:#94C11E"/>
			<stop  offset="0.7782" style="stop-color:#9CC41B"/>
			<stop  offset="0.8568" style="stop-color:#AAC916"/>
			<stop  offset="0.9246" style="stop-color:#BDCF0E"/>
			<stop  offset="0.9848" style="stop-color:#D5D804"/>
			<stop  offset="1" style="stop-color:#DDDB01"/>
		</linearGradient>
		<path class="st2" d="M37.2,41.1c0,2-0.6,3.9-1.7,5.5c-1.1,1.6-2.6,2.9-4.4,3.6c-1.5,0.6-3.1,0.8-4.6,0.7c-4.6-0.3-8.4-3.8-9.1-8.3
			c-0.9-6,3.8-11.5,9.8-11.5C32.8,31.1,37.2,35.6,37.2,41.1z"/>
		<linearGradient id="SVGID_3_" gradientUnits="userSpaceOnUse" x1="28.5461" y1="21.1288" x2="25.7815" y2="50.401">
			<stop  offset="0" style="stop-color:#2CAB67"/>
			<stop  offset="1" style="stop-color:#92C01F"/>
		</linearGradient>
		<path class="st3" d="M27.5,24c-7.7-0.3-14,5.9-14,13.5c0,0.3,0,0.5,0,0.8h2.1c0.7-5.9,5.9-10.5,12-10.1
			c5.8,0.3,10.4,5.1,10.7,10.9c0.3,6.3-4.6,11.6-10.8,11.9c7.4-0.3,13.3-6.6,12.9-14.2C40.1,29.9,34.5,24.3,27.5,24z"/>
	</g>
</g>
</svg>
